<svg width="180" height="48" viewBox="0 0 180 48" fill="none" xmlns="http://www.w3.org/2000/svg">
<g id="Group">
<path id="Vector" d="M61.8229 22.0088H73.5777V25.1203H61.8229V22.0088ZM55.4111 34.3608V13.1455H74.3634V16.8542H59.0884V30.652H74.3949V34.3608H55.4111Z" fill="#434343"/>
<path id="Vector_2" d="M81.027 18.834V34.3604H77.5068V15.0938C77.5068 14.4024 77.664 13.8681 78.0097 13.4595C78.3554 13.0509 78.8269 12.8623 79.3926 12.8623C79.6755 12.8623 79.9269 12.9252 80.1784 13.0509C80.4298 13.1766 80.6813 13.3652 80.9641 13.6481L95.9562 28.5144V12.9566H99.4764V32.4118C99.4764 33.1032 99.3193 33.669 98.9735 34.0461C98.6278 34.4233 98.1878 34.6433 97.6535 34.6433C97.0563 34.6433 96.4906 34.3919 95.9562 33.8575L81.027 18.834Z" fill="#434343"/>
<path id="Vector_3" d="M109.47 28.4519V24.8689H117.988C119.276 24.8689 120.314 24.4917 121.037 23.7689C121.759 23.0145 122.137 22.0716 122.137 20.8459C122.137 19.6201 121.759 18.6458 121.037 17.9229C120.314 17.2 119.276 16.8542 117.988 16.8542H106.736V34.3608H103.059V13.1455H117.988C119.214 13.1455 120.314 13.3341 121.288 13.6798C122.262 14.0255 123.048 14.5599 123.74 15.1885C124.4 15.8485 124.902 16.6342 125.248 17.5771C125.594 18.52 125.782 19.5572 125.782 20.7201C125.782 21.8831 125.594 22.9202 125.248 23.8631C124.902 24.806 124.4 25.6232 123.74 26.3147C123.08 27.0061 122.262 27.5405 121.288 27.9176C120.314 28.2948 119.214 28.4834 117.988 28.4834H109.47V28.4519Z" fill="#434343"/>
<path id="Vector_4" d="M148.098 34.3608L142.724 28.4519H134.772V25.1832H143.604C144.955 25.1832 145.961 24.806 146.652 24.0832C147.344 23.3603 147.69 22.2916 147.69 20.9087C147.69 19.5258 147.344 18.4886 146.621 17.8286C145.898 17.1685 144.924 16.8228 143.635 16.8228H132.069V34.3293H128.392V13.1455H143.635C144.829 13.1455 145.93 13.3341 146.872 13.6798C147.815 14.0255 148.633 14.5599 149.293 15.2199C149.953 15.8799 150.455 16.6971 150.801 17.6714C151.147 18.6143 151.336 19.683 151.336 20.8773C151.336 22.6374 150.958 24.146 150.173 25.3404C149.418 26.5347 148.318 27.3833 146.935 27.9176L153.316 34.3608H148.098Z" fill="#434343"/>
<path id="Vector_5" d="M169.629 30.6522C170.603 30.6522 171.483 30.4636 172.3 30.1179C173.118 29.7722 173.809 29.3007 174.406 28.6721C175.003 28.0749 175.475 27.3206 175.789 26.472C176.135 25.6234 176.292 24.6805 176.292 23.7062C176.292 22.7004 176.135 21.7889 175.789 20.9403C175.443 20.0917 175.003 19.3688 174.406 18.7717C173.809 18.1745 173.118 17.703 172.3 17.3573C171.483 17.0116 170.572 16.8544 169.629 16.8544H164.474C163.531 16.8544 162.651 17.0116 161.834 17.3573C161.017 17.703 160.326 18.1745 159.76 18.7717C159.163 19.3688 158.723 20.0917 158.377 20.9403C158.031 21.7889 157.874 22.7004 157.874 23.7062C157.874 24.7119 158.031 25.6234 158.377 26.472C158.723 27.3206 159.163 28.0749 159.76 28.6721C160.357 29.3007 161.048 29.7722 161.834 30.1179C162.651 30.4636 163.531 30.6522 164.474 30.6522H169.629ZM164.474 34.3609C162.997 34.3609 161.614 34.0781 160.357 33.5438C159.1 32.978 158 32.2237 157.088 31.2808C156.177 30.3065 155.454 29.175 154.92 27.8549C154.417 26.5349 154.134 25.0891 154.134 23.549C154.134 21.9775 154.385 20.5632 154.92 19.2745C155.422 17.9859 156.145 16.8859 157.088 15.9744C158 15.0629 159.1 14.3715 160.357 13.8686C161.614 13.3657 162.966 13.1143 164.474 13.1143H169.629C171.169 13.1143 172.583 13.3657 173.84 13.8686C175.129 14.3715 176.198 15.0943 177.109 16.0058C178.021 16.9173 178.743 18.0173 179.246 19.306C179.749 20.5946 180.001 21.9775 180.001 23.5176C180.001 25.0577 179.749 26.472 179.215 27.8235C178.712 29.1436 177.989 30.275 177.046 31.2494C176.135 32.2237 175.035 32.978 173.778 33.5123C172.52 34.0781 171.106 34.3295 169.597 34.3295H164.474V34.3609Z" fill="#434343"/>
<path id="Vector_6" d="M28.1302 16.414C27.753 15.7854 26.3387 13.4596 26.3387 13.4596C25.8987 12.7367 24.9872 12.5167 24.2643 12.9567L11.1265 20.877C10.4037 21.3171 10.1836 22.2285 10.6237 22.9514C10.6237 22.9828 12.038 25.3087 12.4152 25.9373C12.478 26.0316 12.5723 26.0316 12.6352 26.0001L28.0673 16.6654C28.1302 16.6026 28.1616 16.5083 28.1302 16.414Z" fill="#049CAC"/>
<path id="Vector_7" d="M39.7904 9.6883L24.4525 0.825038C22.5667 -0.275013 20.2095 -0.275013 18.3237 0.825038L2.98585 9.6883C1.13148 10.7569 0 12.737 0 14.8428C0 14.8428 0 19.9031 0 24.6804V32.6636V32.6951V33.0094C0 33.1037 -1.80312e-07 33.2294 0.0314298 33.3237C0.0314298 33.4494 0.18858 33.5122 0.28287 33.4494L8.4861 28.4834C8.58039 28.4206 8.58039 28.3263 8.54896 28.2634L7.51177 26.5662C4.96594 22.3546 5.75169 18.8973 9.99474 16.32L20.5867 9.93974C24.7983 7.42534 28.1299 7.92822 30.2985 11.3855L34.0701 17.6087C34.2587 17.8915 34.1644 18.3001 33.8501 18.4573L14.8978 29.8664C14.8035 29.9292 14.8035 30.0235 14.835 30.0864L16.3436 32.6008C17.6008 34.7066 19.1409 35.0837 21.0267 33.9208L42.6505 20.846C42.7134 20.8145 42.7448 20.7517 42.7448 20.6888V19.2745V14.8428C42.7762 12.7056 41.6133 10.7255 39.7904 9.6883Z" fill="#049CAC"/>
<path id="Vector_8" d="M23.1007 37.9436C18.8891 40.4266 15.8089 40.0808 13.2945 36.0264L11.0944 32.3805C11.0316 32.2862 10.9373 32.2862 10.8744 32.3176L2.45117 37.4093L2.4826 37.4407C2.54546 37.4721 2.57689 37.5036 2.63975 37.5664C2.67118 37.5979 2.70261 37.6293 2.73404 37.6293C2.82833 37.6922 2.92262 37.755 3.01691 37.8179L18.449 46.7126C19.1091 47.0897 19.832 47.3412 20.5863 47.4355C20.6806 47.4355 20.7749 47.4669 20.8692 47.4669C20.9634 47.4669 21.0263 47.4983 21.1206 47.4983C22.2521 47.5612 23.415 47.3097 24.4207 46.7126L39.8529 37.8179C39.9472 37.755 40.0415 37.6922 40.1357 37.6293C40.1672 37.5979 40.1986 37.5979 40.23 37.5664C40.2929 37.535 40.3558 37.4721 40.4186 37.4407C40.45 37.4093 40.5129 37.3779 40.5443 37.3464C40.6072 37.2836 40.7015 37.2207 40.7644 37.1578C42.053 36.0264 42.8387 34.392 42.8387 32.6634V30.2118V26.3774C42.8387 26.2516 42.6816 26.1573 42.5873 26.2202L23.1007 37.9436Z" fill="#2D439B"/>
</g>
</svg>
